<!DOCTYPE svg PUBLIC "-//W3C//DTD SVG 20010904//EN" "http://www.w3.org/TR/2001/REC-SVG-20010904/DTD/svg10.dtd">
<svg version="1.0" xmlns="http://www.w3.org/2000/svg" width="698px" height="731px" viewBox="0 0 6980 7310" preserveAspectRatio="xMidYMid meet">
<g id="layer1" fill="#454545" stroke="none">
 <path d="M3805 6173 c-28 -7 -67 -34 -88 -61 l-19 -22 -30 25 c-30 25 -58 33 -58 15 0 -5 11 -17 25 -26 34 -22 50 -51 36 -68 -6 -7 -18 -41 -27 -75 -13 -52 -14 -74 -5 -127 15 -86 28 -111 63 -123 55 -19 108 33 108 106 0 49 -29 143 -60 195 -19 33 -19 36 -3 50 26 23 101 41 142 33 19 -4 48 -18 64 -31 16 -13 32 -24 36 -24 13 0 58 -101 71 -158 12 -54 2 -139 -45 -377 -8 -39 -17 -126 -21 -194 l-7 -124 -27 59 c-28 62 -85 128 -119 139 -56 17 -140 -92 -141 -183 0 -24 -4 -41 -9 -38 -5 3 -28 38 -51 77 -58 98 -174 227 -223 249 -34 15 -44 16 -71 5 -17 -7 -37 -23 -44 -36 -17 -31 -11 -174 13 -287 28 -137 4 -165 -82 -95 -54 45 -101 132 -114 215 -12 73 -34 110 -63 106 -20 -3 -21 -9 -22 -133 -1 -71 -2 -137 -3 -145 -1 -8 -19 20 -40 62 -65 130 -129 195 -180 181 -12 -3 -34 -26 -49 -52 -24 -40 -27 -56 -26 -128 0 -46 -3 -83 -7 -83 -4 0 -47 20 -97 45 -50 24 -102 47 -117 51 -34 8 -45 38 -45 122 0 98 -24 241 -48 289 -44 86 -213 203 -317 219 -27 4 -54 7 -59 6 -4 -2 -24 2 -43 9 -44 14 -168 -3 -227 -32 -22 -10 -44 -19 -48 -19 -5 0 -29 33 -55 73 -55 86 -63 96 -63 76 0 -8 20 -49 44 -92 l45 -78 -24 -11 c-35 -16 -67 -96 -55 -137 24 -85 85 -155 190 -218 86 -51 125 -67 251 -102 58 -16 121 -40 141 -54 68 -45 168 -129 178 -147 6 -10 10 -54 10 -97 0 -92 36 -243 71 -299 13 -21 36 -53 52 -71 25 -28 36 -33 73 -33 32 0 50 6 65 21 19 19 21 29 15 88 -10 109 -29 147 -135 280 -39 48 -46 62 -49 113 -3 32 0 58 4 58 5 0 28 -7 52 -15 84 -29 161 -75 203 -120 50 -54 76 -62 118 -41 46 24 47 51 8 147 -19 46 -38 99 -42 117 -6 29 -5 32 18 32 14 0 39 -11 55 -24 27 -24 103 -166 133 -249 8 -22 22 -43 31 -48 42 -22 94 45 82 106 -7 41 -5 42 28 13 98 -89 101 -91 148 -96 39 -3 52 0 69 17 33 33 28 140 -14 316 -34 141 -27 161 43 122 79 -44 203 -211 296 -400 56 -114 128 -160 221 -143 35 7 50 23 56 61 4 17 -2 20 -41 20 -83 1 -136 63 -140 166 -5 112 -1 139 19 139 25 0 76 -51 102 -101 20 -39 41 -50 56 -26 4 6 13 -37 19 -99 15 -145 39 -221 76 -240 31 -16 71 -6 82 22 9 22 -1 89 -26 184 -29 108 -36 360 -15 495 44 271 44 418 3 510 -22 47 -29 53 -125 103 -100 51 -137 60 -196 45z m-58 -234 c24 -58 29 -128 13 -160 -7 -12 -21 -19 -39 -19 -25 0 -29 5 -39 50 -8 35 -9 65 -2 102 21 108 32 112 67 27z m-1658 -194 c85 -29 125 -52 167 -97 61 -65 109 -175 119 -272 3 -28 8 -68 11 -89 5 -44 11 -44 -139 4 -67 22 -103 40 -150 78 -90 72 -197 186 -300 319 l-27 36 27 14 c67 36 199 39 292 7z m-248 -157 c51 -62 124 -143 163 -180 39 -38 65 -68 58 -68 -49 0 -234 86 -304 142 -45 37 -92 125 -82 154 10 26 45 64 60 64 7 0 54 -51 105 -112z m514 -372 c24 -10 33 -20 32 -35 -1 -12 -3 -21 -5 -21 -5 0 -92 63 -92 67 0 8 33 2 65 -11z m191 -308 c53 -74 75 -130 77 -196 2 -53 0 -57 -21 -60 -41 -6 -73 53 -97 180 -27 143 -19 159 41 76z"/>
 <path d="M4778 5575 c-45 -31 -58 -53 -58 -100 0 -44 29 -62 73 -46 34 13 37 60 6 90 l-21 19 20 11 c15 8 29 8 49 0 57 -21 56 -47 -5 -219 l-49 -135 -37 3 c-21 2 -52 -2 -71 -8 -26 -9 -41 -7 -76 6 -53 21 -188 106 -214 134 -19 21 -45 27 -45 11 0 -19 116 -111 184 -147 39 -20 72 -38 74 -39 2 -2 -8 -14 -22 -28 -22 -22 -26 -23 -40 -9 -21 21 -32 8 -18 -22 10 -22 2 -89 -12 -103 -3 -3 -24 9 -48 28 -77 59 -73 56 -60 32 7 -11 39 -43 71 -70 33 -26 63 -57 67 -68 3 -11 17 -45 31 -75 13 -30 31 -70 39 -89 16 -36 11 -91 -8 -91 -21 0 -140 71 -173 103 -18 18 -49 57 -69 87 -19 30 -43 64 -51 75 -15 19 -16 18 -11 -17 2 -20 25 -68 52 -108 47 -72 84 -103 194 -162 48 -26 49 -29 33 -108 -12 -57 5 -115 32 -115 14 0 25 16 42 65 12 36 20 74 17 84 -5 16 -3 18 17 12 13 -4 76 -12 140 -18 98 -10 133 -9 235 5 65 10 164 22 219 27 55 5 114 14 130 19 71 25 239 52 350 58 105 5 136 2 255 -22 185 -37 197 -43 171 -84 -8 -12 -19 -10 -68 12 -89 40 -208 53 -350 39 -106 -10 -421 -67 -432 -78 -23 -22 77 -12 274 27 126 26 360 31 420 10 101 -36 171 -77 241 -146 83 -81 97 -115 96 -236 0 -90 -32 -181 -73 -212 -22 -16 -32 -18 -60 -9 -19 6 -47 13 -62 16 -33 8 -112 78 -133 117 -21 42 -17 64 20 103 27 29 41 36 70 36 30 0 37 3 34 18 -3 14 -14 17 -72 15 -78 -1 -97 -13 -122 -79 -21 -55 -13 -127 22 -196 21 -42 34 -54 79 -74 134 -62 277 -2 320 134 14 41 17 77 13 161 -4 101 -7 112 -36 157 -17 27 -61 73 -97 103 -36 29 -65 56 -65 60 0 3 7 15 15 26 15 18 17 19 60 3 103 -38 285 -187 366 -298 68 -93 100 -71 35 25 -73 109 -240 246 -371 306 -60 27 -79 49 -55 64 6 3 10 15 10 26 0 11 9 38 21 60 23 46 23 46 109 -4 54 -32 241 -209 291 -276 15 -21 30 -32 37 -27 22 13 -32 97 -115 178 -95 95 -168 151 -242 185 -31 15 -59 32 -63 38 -20 32 -64 49 -133 51 -38 0 -134 6 -211 12 -135 11 -144 13 -190 44 -39 26 -59 33 -96 32 -30 0 -55 -7 -66 -17 -18 -16 -22 -16 -77 3 -32 11 -61 17 -64 14 -8 -8 29 -34 49 -34 25 0 60 -29 60 -50 0 -14 -14 -22 -67 -35 -38 -9 -84 -21 -103 -26 -54 -15 -207 -39 -292 -45 -55 -5 -99 -1 -155 11 -70 16 -133 39 -133 49 0 11 70 46 91 46 12 0 115 31 228 69 309 103 498 138 695 127 145 -8 215 -22 406 -81 143 -45 247 -90 331 -144 24 -15 76 -46 114 -69 39 -23 78 -48 87 -54 9 -7 21 -9 25 -4 17 17 -94 98 -282 205 -144 82 -457 167 -680 186 -147 12 -457 -39 -635 -106 -86 -31 -270 -89 -287 -89 -6 0 -14 24 -18 52 -4 29 -14 63 -23 76 -8 12 -12 25 -9 29 3 3 50 7 104 9 54 2 134 10 178 19 44 8 117 22 162 30 97 16 139 27 258 65 50 15 140 40 200 54 170 41 185 46 185 58 0 22 -144 -7 -465 -96 -250 -70 -616 -117 -664 -87 -17 11 -15 22 43 186 25 72 46 140 46 152 0 41 -30 89 -64 101 -41 15 -35 16 -78 -13z m-47 -452 c33 -6 35 -16 14 -66 -11 -28 -19 -34 -35 -30 -11 3 -34 0 -50 -7 -27 -11 -32 -10 -50 11 -27 34 -25 53 12 84 23 19 38 25 56 20 13 -3 37 -9 53 -12z m134 -112 c19 -55 19 -56 -1 -75 -10 -11 -34 -16 -74 -16 l-58 0 17 58 c10 31 26 75 35 97 l17 40 25 -30 c13 -16 31 -50 39 -74z m-235 -63 c0 -11 -18 -10 -41 2 -13 7 -19 21 -19 43 l1 32 29 -35 c16 -19 30 -38 30 -42z m90 32 c0 -25 -27 -37 -43 -21 -9 10 -8 16 7 27 27 19 36 18 36 -6z m-91 -70 c5 0 20 -9 34 -20 l25 -20 -17 -47 c-9 -27 -21 -47 -26 -47 -10 2 -42 77 -52 123 -5 20 -3 23 11 18 10 -4 21 -7 25 -7z m1416 -46 c98 -9 109 -15 111 -55 2 -32 22 -57 68 -84 14 -9 15 -15 5 -42 -6 -18 -14 -33 -18 -33 -3 0 -38 8 -76 19 -229 60 -437 58 -705 -9 -41 -11 -124 -24 -185 -30 -60 -6 -135 -15 -165 -20 -78 -12 -285 -10 -349 3 -51 11 -56 15 -64 47 -7 26 -5 48 8 85 42 122 40 121 132 75 87 -44 201 -70 301 -70 98 0 149 8 354 57 142 34 149 35 182 19 42 -20 88 -20 125 -1 26 13 34 12 82 -5 62 -23 69 -24 69 -10 0 6 -11 15 -25 20 -14 6 -37 15 -52 22 l-28 11 25 8 c24 8 62 6 205 -7z m193 -40 c23 -6 30 -38 12 -49 -20 -12 -50 6 -50 31 0 26 3 27 38 18z m-1588 -251 c0 -63 -14 -123 -28 -123 -12 0 -14 11 -9 59 3 33 8 64 12 70 10 17 25 13 25 -6z"/>
 <path d="M1623 5393 c-33 -6 -83 -68 -83 -103 0 -39 32 -70 71 -70 35 0 36 23 1 28 -54 8 -45 83 13 111 25 12 35 12 69 0 32 -11 45 -24 64 -61 50 -97 -3 -155 -149 -164 l-84 -6 -66 44 c-83 57 -139 67 -186 35 -36 -24 -86 -89 -98 -125 -8 -27 -15 -27 -125 3 -267 73 -611 -1 -913 -196 -60 -39 -137 -111 -137 -129 0 -17 58 18 76 45 9 13 28 31 42 38 15 8 65 38 112 68 123 78 329 152 460 165 l71 7 -7 -29 c-10 -44 -13 -46 -44 -24 -15 11 -33 20 -39 20 -23 0 -9 -26 29 -53 22 -16 40 -35 40 -43 0 -23 -26 -27 -56 -8 -26 18 -26 17 -21 -1 6 -17 -7 -25 -92 -57 -53 -21 -101 -38 -105 -38 -4 0 -26 15 -49 33 -23 19 -57 42 -75 53 -28 16 -34 17 -42 4 -12 -20 -8 -24 54 -54 30 -15 57 -34 60 -43 8 -19 15 -14 -66 -52 -65 -30 -156 -95 -248 -173 -37 -32 -40 -38 -22 -38 12 0 36 13 54 28 72 61 186 140 247 171 l65 31 22 -21 c19 -18 37 -61 39 -92 0 -9 -162 -77 -185 -77 -28 0 -59 -30 -70 -68 -8 -28 -22 -45 -60 -70 -57 -36 -68 -55 -50 -77 13 -15 24 -12 26 6 1 5 2 13 3 17 0 5 17 17 36 28 l36 19 24 -32 c32 -39 83 -57 144 -49 l46 6 -34 -27 c-58 -46 -95 -93 -113 -141 -22 -62 -22 -121 -1 -152 40 -58 51 -64 121 -68 83 -4 124 17 142 74 12 36 11 39 -14 61 -28 24 -56 30 -56 13 0 -5 9 -15 20 -22 12 -8 20 -24 20 -39 0 -61 -118 -86 -178 -38 -82 64 -35 207 102 308 121 90 224 124 414 137 142 10 120 28 -25 21 -116 -5 -200 -23 -288 -63 -54 -23 -81 -31 -59 -16 25 16 47 81 52 150 3 40 9 75 13 78 5 3 53 13 106 24 101 19 189 19 313 1 36 -6 95 -13 133 -16 l67 -7 -6 -119 c-5 -90 -4 -119 5 -119 7 0 33 12 59 26 26 15 103 57 172 94 l125 68 90 -5 c162 -9 295 25 435 110 71 44 180 147 180 172 0 25 -10 18 -72 -50 -68 -74 -136 -117 -258 -165 -76 -29 -99 -33 -211 -38 -123 -4 -127 -4 -139 18 -7 14 -9 39 -5 70 l7 49 56 6 c32 4 78 10 104 14 l47 8 3 -31 c2 -24 8 -32 26 -34 30 -4 55 16 49 40 -7 26 4 22 50 -17 79 -68 92 -39 39 86 -5 12 2 22 26 37 88 55 148 100 173 130 36 43 24 54 -18 15 -36 -35 -176 -133 -189 -133 -9 0 -28 40 -42 87 -6 20 3 27 91 72 106 55 130 72 157 114 26 38 -2 37 -37 -2 -29 -33 -86 -68 -170 -106 l-58 -25 -17 40 c-9 22 -23 40 -29 40 -15 0 -17 -44 -3 -70 9 -16 4 -20 -38 -33 -26 -9 -80 -18 -121 -22 -70 -6 -75 -5 -101 20 -32 30 -64 28 -73 -5 -4 -17 -11 -19 -54 -14 -98 13 -227 40 -230 50 -5 17 36 74 69 95 26 16 44 19 82 15 26 -3 55 -11 63 -18 13 -10 11 -14 -9 -30 -23 -17 -22 -17 29 -11 44 5 54 3 69 -16 23 -26 40 -27 47 -1 4 17 14 20 55 20 76 0 108 10 148 44 29 25 37 40 40 76 6 58 -26 116 -81 147 -39 22 -57 25 -102 16z m-692 -313 c48 -6 116 -19 153 -30 l65 -21 -2 -36 c-1 -28 2 -38 14 -41 12 -2 17 4 17 23 0 15 3 30 8 35 11 11 323 -38 342 -53 7 -6 12 -34 12 -73 0 -64 0 -64 -29 -64 -16 0 -43 3 -60 6 -30 6 -31 8 -31 59 0 65 -25 95 -65 77 -34 -16 -32 -46 5 -74 31 -22 40 -48 18 -48 -31 0 -172 40 -178 50 -4 7 -20 10 -36 9 -16 -2 -72 4 -124 14 -52 9 -111 18 -130 19 -29 3 -35 7 -38 28 -8 77 -32 99 -32 30 l0 -40 -35 17 c-33 16 -35 20 -35 64 0 64 9 66 161 49z m929 -96 c8 -19 4 -21 -41 -22 -55 -1 -64 -5 -79 -32 -8 -15 -6 -23 11 -38 26 -25 55 -18 68 18 7 22 14 27 30 23 25 -6 45 -29 37 -41 -13 -21 -80 -43 -173 -57 -151 -23 -143 -25 -143 43 0 82 8 89 119 103 52 6 104 15 115 19 30 13 48 8 56 -16z m-1027 -101 c-2 -39 -3 -43 -11 -43 -15 0 -62 51 -56 61 3 6 20 9 37 7 26 -2 31 -7 30 -25z m-115 5 c7 -7 12 -25 12 -40 0 -31 3 -33 29 -16 29 18 72 -18 69 -57 -3 -30 -4 -30 -66 -33 -55 -3 -65 0 -81 20 -16 20 -22 21 -45 10 -16 -7 -26 -20 -26 -32 0 -13 -10 -24 -26 -30 -35 -14 -33 -15 -55 33 -11 23 -25 50 -31 59 -16 22 -13 25 84 64 89 36 117 41 136 22z m352 -9 c36 -8 48 -16 61 -42 9 -18 26 -34 40 -37 24 -6 25 -8 20 -72 -1 -14 -10 -18 -38 -18 -62 -1 -287 34 -295 44 -10 15 3 29 15 17 16 -16 37 -13 37 4 0 9 -11 21 -25 27 -18 8 -25 19 -25 38 0 33 9 43 26 29 19 -16 45 -4 37 17 -6 15 0 16 48 10 30 -4 74 -12 99 -17z m844 -35 c9 -24 8 -26 -16 -18 -32 9 -35 14 -18 24 21 13 27 12 34 -6z m-581 -25 l57 -12 0 -59 c0 -38 -4 -60 -12 -63 -24 -8 -153 20 -152 33 1 6 2 37 3 68 1 53 2 56 24 50 12 -3 48 -11 80 -17z m178 -29 c25 0 29 -4 29 -27 0 -71 -35 -108 -89 -97 -31 6 -31 7 -31 72 l0 65 31 -7 c17 -3 44 -6 60 -6z m-242 -126 c26 -5 30 -10 25 -29 -9 -34 9 -38 58 -10 45 26 68 31 68 16 0 -5 -43 -30 -94 -55 -52 -25 -98 -51 -101 -56 -15 -25 -22 -5 -18 53 7 95 5 92 62 81z m-749 -46 c0 -59 -21 -112 -60 -150 -32 -33 -44 -38 -82 -38 -51 0 -98 29 -98 61 0 15 7 19 33 19 44 0 66 18 72 59 5 40 1 35 55 60 65 30 80 28 80 -11z"/>
 <path d="M1252 4743 c2 -10 10 -18 18 -18 8 0 16 8 18 18 2 12 -3 17 -18 17 -15 0 -20 -5 -18 -17z"/>
 <path d="M2834 4865 c-32 -49 23 -104 75 -75 28 14 27 51 -2 78 -31 29 -53 28 -73 -3z"/>
 <path d="M612 4608 c-30 -30 11 -78 53 -62 32 13 11 74 -25 74 -9 0 -21 -5 -28 -12z"/>
 <path d="M5332 4488 c-21 -21 -13 -55 19 -82 17 -14 37 -26 45 -26 9 0 14 -12 15 -37 l0 -38 19 53 c17 47 17 56 4 87 -20 50 -73 72 -102 43z"/>
 <path d="M5477 4346 c5 -34 4 -37 -36 -54 -23 -11 -48 -28 -56 -38 -18 -24 -20 -74 -2 -74 20 0 126 107 133 134 9 38 1 61 -23 64 -20 3 -21 0 -16 -32z"/>
 <path d="M2954 4274 c-23 -34 -30 -157 -14 -250 7 -41 11 -77 8 -80 -3 -3 -28 16 -54 42 -64 61 -126 103 -162 110 -26 5 -69 -9 -134 -44 -3 -2 -21 13 -40 34 -52 58 -154 125 -196 131 -75 10 -131 -43 -174 -166 -20 -57 -20 -131 -2 -273 l7 -48 -73 0 c-49 0 -99 -8 -158 -26 -68 -21 -97 -25 -140 -20 -95 11 -178 72 -205 151 -14 39 -37 59 -37 32 0 -24 22 -80 46 -117 49 -74 174 -127 262 -110 20 4 72 17 114 29 50 14 98 21 135 19 l58 -3 13 -45 c48 -173 116 -321 173 -382 30 -31 43 -38 75 -38 97 0 158 94 140 215 -12 77 -149 213 -258 254 -23 9 -27 18 -39 98 -16 108 -16 263 1 304 33 79 120 71 211 -20 l56 -56 7 -80 c8 -102 36 -162 91 -192 110 -62 206 9 146 108 -16 26 -136 122 -165 132 -22 7 5 36 49 51 44 15 49 14 86 -4 21 -11 60 -41 86 -68 84 -83 120 -149 147 -273 l6 -26 -138 -8 c-75 -4 -150 -7 -166 -7 -16 1 -35 -3 -42 -9 -18 -15 -5 -49 22 -54 13 -3 35 -7 48 -10 13 -3 46 0 72 5 27 6 73 15 103 21 30 6 69 8 86 5 30 -6 33 -10 48 -74 9 -37 19 -84 22 -105 6 -28 13 -39 31 -43 38 -10 54 12 54 70 0 28 -5 68 -11 89 -6 22 -8 41 -5 45 10 9 128 -30 184 -60 52 -30 94 -74 106 -115 10 -31 -12 -39 -24 -9 -10 28 -35 35 -43 12 -8 -20 14 -56 45 -74 26 -15 29 -15 45 0 24 25 18 84 -15 137 -32 53 -78 79 -217 126 -74 25 -91 34 -97 55 -4 14 -30 122 -59 240 -52 219 -60 303 -31 332 17 17 62 -18 85 -65 28 -57 58 -44 37 16 -22 66 -87 117 -149 117 -32 0 -44 -5 -57 -26z m-253 -366 c53 -34 89 -82 89 -118 0 -43 -72 -7 -120 60 -19 27 -36 90 -25 90 4 0 29 -14 56 -32z m-317 -287 c74 -43 154 -129 170 -182 11 -36 11 -52 0 -87 -15 -51 -40 -82 -64 -82 -23 0 -85 69 -106 117 -30 72 -73 263 -59 263 4 0 31 -13 59 -29z"/>
 <path d="M4361 4283 c-25 -13 -40 -31 -58 -72 -21 -48 -25 -71 -25 -161 1 -58 6 -162 12 -231 15 -164 8 -229 -24 -229 -32 0 -110 166 -141 300 -10 41 -19 81 -21 88 -7 26 -37 6 -50 -33 -7 -22 -25 -96 -39 -165 -14 -69 -28 -135 -31 -147 -2 -13 -9 -23 -14 -23 -20 0 -33 54 -80 323 -12 63 -58 168 -78 175 -7 2 -22 -19 -37 -51 -27 -57 -45 -138 -71 -317 -34 -225 -31 -234 63 -203 l58 20 6 179 c8 215 7 204 18 204 13 0 18 -17 46 -176 30 -174 53 -229 96 -238 48 -9 49 -9 69 37 17 40 23 77 35 227 3 35 8 66 10 68 2 2 9 -16 15 -39 21 -79 102 -246 138 -285 18 -21 30 -25 64 -22 36 3 45 8 58 33 20 41 20 259 0 335 -8 34 -14 108 -14 196 -1 153 6 174 58 174 21 0 28 -9 45 -55 12 -31 21 -69 21 -85 0 -32 17 -41 27 -14 10 27 -17 121 -48 163 -33 46 -54 50 -108 24z"/>
 <path d="M4552 3995 c-53 -44 -77 -99 -76 -180 1 -39 6 -86 12 -105 5 -19 13 -47 16 -62 23 -102 214 -178 281 -111 19 18 19 76 1 112 -32 60 -136 129 -177 116 -24 -8 -25 -25 -1 -25 39 0 134 -79 152 -126 8 -21 8 -31 -3 -42 -36 -35 -105 24 -160 137 -36 75 -42 95 -42 153 0 56 4 71 22 89 46 46 136 11 219 -86 72 -83 104 -70 42 17 -59 81 -127 126 -206 134 -40 4 -52 1 -80 -21z"/>
 <path d="M2855 2875 c-52 -18 -117 -91 -159 -180 -53 -110 -94 -226 -101 -280 -12 -100 -17 -125 -27 -125 -5 0 -38 25 -71 56 -80 72 -131 107 -154 102 -13 -2 -6 -10 27 -30 25 -15 79 -59 119 -97 l75 -70 1 -263 c2 -290 16 -427 58 -533 57 -145 138 -225 226 -225 65 1 123 30 152 76 21 34 24 51 24 129 -1 81 -5 100 -42 195 -92 236 -158 356 -268 485 l-65 76 6 62 c12 129 46 277 65 277 5 0 29 -18 53 -40 38 -35 110 -161 146 -255 10 -26 30 -34 30 -11 0 42 -70 196 -120 262 l-39 52 50 6 c50 7 139 42 170 68 30 24 53 91 54 150 0 64 -16 87 -80 114 -42 17 -78 17 -130 -1z m143 -88 c37 -34 27 -88 -28 -150 -34 -39 -96 -64 -172 -70 -71 -5 -76 2 -48 70 64 157 170 222 248 150z m-266 -731 c58 -69 100 -142 176 -306 46 -98 62 -149 72 -220 16 -115 -9 -190 -62 -190 -75 0 -215 267 -242 462 -18 127 -28 328 -16 328 5 0 37 -33 72 -74z"/>
 <path d="M3618 2854 c-15 -8 -42 -35 -60 -61 -46 -68 -50 -139 -13 -213 15 -30 37 -67 49 -83 34 -48 164 -146 243 -185 65 -32 73 -40 73 -64 0 -34 -2 -34 -48 -3 -45 31 -93 32 -138 5 -45 -28 -59 -75 -58 -190 0 -162 48 -275 112 -268 21 2 30 11 39 41 11 32 10 56 -4 140 -9 56 -17 121 -16 144 1 80 43 96 92 34 23 -29 33 -55 41 -112 32 -213 43 -263 70 -331 21 -51 42 -84 71 -110 46 -43 55 -45 88 -22 22 16 23 21 18 102 -5 80 -9 93 -71 216 -59 118 -67 141 -79 231 -11 83 -11 101 0 103 26 7 229 -68 280 -103 50 -34 80 -45 68 -26 -3 5 -32 30 -65 54 -45 34 -88 55 -176 83 -125 40 -134 48 -134 118 0 78 -42 282 -68 330 -78 144 -220 221 -314 170z m171 -108 c31 -22 42 -40 64 -104 40 -114 64 -320 38 -314 -35 8 -174 98 -206 134 -92 101 -109 242 -37 299 35 27 89 21 141 -15z m351 -995 c23 -73 21 -121 -5 -121 -7 0 -16 8 -19 18 -10 30 -36 176 -36 197 1 19 1 19 19 -2 10 -12 28 -53 41 -92z"/>
 <path d="M1758 2631 c-85 -22 -140 -59 -173 -116 -21 -35 -33 -45 -53 -45 -46 -1 -139 -27 -183 -51 -63 -35 -84 -70 -83 -135 0 -57 -2 -59 -53 -54 -48 3 -133 -21 -151 -44 -14 -19 -31 -24 -92 -30 -123 -12 -186 -34 -238 -83 -34 -31 -55 -43 -77 -43 -40 -1 -101 -29 -172 -81 -132 -95 -201 -183 -234 -299 -7 -25 -18 -52 -26 -61 -7 -9 -10 -19 -6 -22 14 -15 44 -6 77 24 44 39 209 119 244 119 15 0 52 7 82 15 98 26 251 19 395 -20 28 -7 84 -21 125 -30 41 -10 86 -24 100 -31 76 -41 321 -118 430 -135 287 -45 568 47 649 211 28 55 44 127 38 165 -8 46 -44 119 -74 147 -28 26 -28 33 -3 86 33 68 24 237 -18 321 -9 20 -32 45 -50 56 -19 11 -55 40 -80 63 -74 69 -132 92 -227 91 -44 0 -110 -8 -147 -18z m233 -32 c21 -7 54 -25 74 -42 l36 -30 -30 -31 c-46 -47 -57 -88 -35 -126 14 -22 26 -30 47 -30 36 0 85 47 93 89 8 39 17 39 43 2 40 -55 55 -228 27 -296 -8 -19 -17 -35 -20 -35 -3 0 -24 10 -47 22 -49 25 -138 27 -174 4 -31 -20 -41 -63 -19 -87 35 -38 112 -47 215 -23 22 5 31 -2 70 -52 40 -52 44 -62 43 -109 -2 -59 -47 -149 -96 -190 -120 -101 -337 -140 -562 -100 -105 19 -271 72 -406 130 -159 70 -467 113 -605 85 -33 -7 -80 -15 -105 -19 -25 -4 -90 -31 -145 -59 -55 -28 -101 -47 -103 -42 -2 5 4 24 14 42 64 127 236 265 353 284 35 6 45 3 74 -23 67 -58 178 -67 185 -14 6 36 -32 67 -99 81 -32 7 -59 16 -59 20 0 28 219 81 263 64 6 -2 19 -17 29 -33 33 -59 137 -103 202 -87 31 8 50 40 42 73 -8 28 -86 69 -154 79 -61 9 -60 21 4 34 55 12 154 5 154 -10 0 -4 15 -22 32 -39 26 -26 40 -31 68 -29 68 6 48 78 -28 100 -36 10 -48 20 -59 47 -36 84 40 157 182 175 57 7 63 4 90 -46 28 -53 90 -85 142 -72 35 8 38 12 41 49 4 52 -24 80 -104 104 l-59 17 45 47 c36 38 58 51 110 66 74 22 175 26 231 10z m145 -134 c15 -39 -26 -106 -52 -84 -18 15 -18 33 1 69 17 32 42 39 51 15z m-430 -70 c27 -17 33 -55 9 -55 -40 0 -95 46 -95 79 0 12 53 -2 86 -24z m-511 -308 c38 -14 61 -28 63 -39 6 -30 -74 -23 -122 10 -78 53 -48 68 59 29z m958 -12 c33 -14 17 -25 -35 -25 -55 1 -116 24 -88 34 42 14 70 12 123 -9z m-1285 -109 c15 -15 14 -16 -13 -16 -17 1 -46 10 -65 21 l-35 20 49 -4 c26 -3 55 -12 64 -21z"/>
 <path d="M5050 2531 c-53 -8 -128 -41 -153 -65 -10 -10 -17 -33 -17 -54 l0 -37 -92 -1 c-104 -1 -144 -14 -203 -65 -51 -45 -68 -84 -69 -155 0 -43 7 -73 21 -101 l22 -41 -43 -45 c-35 -36 -46 -58 -60 -113 -15 -63 -15 -74 -1 -128 42 -161 137 -253 342 -332 64 -25 79 -26 243 -27 125 -1 199 4 258 15 142 28 384 -2 597 -74 103 -35 216 -99 281 -161 55 -50 79 -83 141 -184 14 -23 37 -22 47 2 10 27 -31 142 -107 300 -51 105 -161 249 -253 332 -45 41 -74 76 -74 88 -1 31 -35 96 -72 136 -36 39 -166 139 -179 139 -5 0 -9 21 -9 48 -1 66 -30 123 -98 192 -51 51 -60 65 -64 105 -10 86 -127 190 -242 215 -70 15 -162 20 -216 11z m183 -46 c55 -7 128 -43 170 -82 29 -29 73 -110 63 -120 -3 -3 -26 0 -51 7 -73 20 -125 -11 -125 -74 0 -67 147 -90 183 -30 4 8 16 14 27 14 36 0 120 -127 120 -182 l0 -26 -77 5 c-58 4 -88 1 -115 -10 -35 -15 -38 -19 -38 -56 0 -71 45 -97 147 -89 50 4 61 9 88 41 l32 37 49 -32 c68 -44 164 -144 164 -169 0 -16 -4 -19 -17 -14 -94 40 -112 42 -141 15 -38 -36 -22 -118 30 -154 34 -24 129 -21 161 4 14 11 29 20 34 20 14 0 114 -104 178 -185 53 -68 142 -231 131 -242 -3 -3 -29 15 -57 40 -81 71 -231 140 -404 187 -193 52 -319 61 -518 35 -97 -13 -173 -16 -264 -13 -112 5 -139 10 -212 37 -156 59 -239 140 -286 280 -26 79 -8 156 50 219 l24 25 53 -36 c88 -60 174 -71 198 -27 25 48 -61 109 -164 117 l-64 6 -22 48 c-31 66 -25 137 16 181 47 50 97 68 195 68 l87 0 60 -62 c61 -62 61 -62 119 -63 52 0 58 2 61 21 4 30 -78 101 -137 118 -52 15 -67 32 -57 69 12 48 143 93 236 81 14 -1 47 -6 73 -9z m-205 -212 c41 -27 53 -43 32 -43 -18 0 -64 27 -84 49 -28 31 0 28 52 -6z m395 -29 c33 -8 34 -19 3 -39 -27 -18 -74 -11 -83 11 -7 20 16 45 36 40 9 -3 28 -8 44 -12z m-684 -282 c45 -22 54 -46 14 -36 -36 8 -93 43 -93 55 0 12 30 4 79 -19z m821 -8 c64 -13 45 -56 -31 -69 -48 -8 -76 0 -90 27 -21 39 35 59 121 42z m269 -294 c61 -29 63 -32 48 -48 -26 -26 -90 -22 -121 7 -30 29 -35 71 -8 71 9 0 46 -14 81 -30z"/>
 <path d="M3375 2418 c-102 -56 -153 -175 -177 -410 l-12 -118 -42 0 c-59 0 -104 -18 -104 -41 0 -17 8 -19 75 -19 l75 0 0 -53 c0 -57 39 -254 64 -324 17 -49 58 -122 95 -172 50 -67 162 -90 247 -52 49 22 53 28 76 101 25 77 22 133 -8 215 -50 133 -133 223 -259 281 l-40 19 1 125 c1 152 15 225 57 287 26 38 38 49 64 51 46 5 69 -12 85 -60 17 -49 41 -57 46 -15 9 76 -111 198 -193 197 -16 0 -39 -6 -50 -12z m73 -698 c67 -53 100 -97 128 -176 27 -74 30 -130 10 -179 -30 -72 -90 -33 -141 92 -40 99 -78 303 -57 303 6 0 33 -18 60 -40z"/>
 <path d="M1843 1313 c-44 -8 -70 -82 -41 -111 20 -20 30 -14 24 16 -3 15 -2 34 4 42 8 13 12 13 27 -3 15 -15 19 -39 22 -153 3 -131 2 -136 -18 -141 -27 -7 -27 -23 -1 -23 18 0 20 -7 20 -57 1 -147 32 -252 96 -323 35 -39 40 -41 88 -38 42 3 53 7 65 29 12 22 12 31 0 69 -20 63 -43 66 -34 5 7 -45 7 -47 -15 -43 -49 7 -82 112 -85 276 -2 62 -6 116 -9 119 -3 4 -6 26 -6 49 0 60 -19 194 -32 227 -11 30 -53 68 -72 66 -6 -1 -21 -4 -33 -6z"/>
 <path d="M4201 1176 c-19 -21 -22 -35 -22 -99 0 -42 7 -104 15 -139 13 -57 20 -113 17 -145 -2 -25 -39 -12 -65 22 -38 50 -56 97 -56 151 0 49 -19 58 -31 13 -6 -23 -30 -28 -37 -8 -2 5 -18 31 -35 57 -24 35 -38 47 -57 47 -22 0 -27 -8 -43 -55 -9 -30 -20 -99 -24 -153 -3 -57 -10 -96 -16 -94 -5 1 -26 48 -46 103 -64 177 -102 215 -161 159 l-28 -27 -19 22 c-59 73 -79 91 -125 114 -29 14 -60 26 -69 26 -21 0 -84 -34 -118 -64 -53 -47 -78 -166 -49 -233 25 -57 83 -135 111 -149 87 -45 211 57 164 135 -19 31 -55 44 -42 15 25 -55 -7 -124 -56 -124 -26 0 -32 6 -48 43 -44 103 -51 199 -19 263 49 98 157 84 236 -32 17 -25 22 -47 22 -92 0 -128 63 -184 154 -137 15 8 30 15 32 15 2 0 17 -26 33 -57 34 -68 61 -96 84 -87 28 10 36 68 30 224 -5 131 -4 150 9 150 18 0 64 -57 82 -103 10 -25 11 -51 3 -113 -9 -74 -8 -85 9 -115 26 -45 70 -53 80 -14 3 14 4 39 1 55 -9 42 8 45 31 6 25 -43 77 -73 97 -56 22 18 26 80 9 160 -46 225 -49 248 -34 274 16 30 27 32 51 10 34 -31 45 -9 12 24 -38 38 -52 40 -82 8z m-457 -220 c20 -47 20 -48 2 -62 -41 -29 -88 34 -65 88 17 41 40 32 63 -26z m350 -178 c4 -17 2 -28 -4 -28 -11 0 -12 3 -15 43 -2 33 10 23 19 -15z"/>
 <path d="M4564 1184 c-43 -21 -59 -77 -44 -154 6 -30 14 -99 17 -152 5 -87 3 -98 -12 -104 -12 -5 -29 5 -56 33 -37 39 -38 43 -44 128 -3 49 -8 91 -11 94 -9 10 -38 -15 -45 -40 -18 -63 -51 -269 -46 -283 4 -9 19 -21 34 -27 24 -9 30 -7 45 11 10 12 18 33 18 46 0 31 15 31 35 0 23 -34 62 -58 85 -51 26 8 49 48 60 104 7 40 5 63 -11 118 -10 37 -22 110 -26 161 -5 81 -4 92 11 92 9 0 24 -9 33 -20 10 -11 21 -20 25 -20 15 0 8 47 -10 63 -22 20 -19 20 -58 1z"/>
 <path d="M1648 1160 c-28 -22 -61 -98 -77 -178 -14 -67 -14 -117 0 -165 l10 -38 47 7 c92 13 87 4 84 151 -5 173 7 194 92 158 17 -8 17 -6 2 24 -17 32 -69 61 -111 61 -12 0 -34 -9 -47 -20z"/>
 <path d="M5094 1129 c-12 -6 -32 -33 -44 -59 -21 -45 -22 -58 -18 -189 3 -78 3 -141 1 -141 -2 0 -21 9 -42 20 -21 10 -41 17 -44 14 -3 -4 -6 32 -6 79 1 128 -33 177 -121 177 -48 0 -110 -33 -129 -68 -34 -63 -14 -224 32 -265 62 -54 109 -50 170 15 38 41 50 49 58 37 5 -8 9 -17 9 -21 0 -3 19 -13 43 -20 28 -10 43 -21 44 -34 4 -43 29 -144 39 -154 5 -5 22 -6 39 -2 38 11 42 41 20 157 -9 47 -13 90 -10 95 11 18 51 10 75 -15 37 -40 67 -27 49 22 -11 30 -43 45 -90 42 -48 -4 -55 4 -63 61 -18 133 -18 157 -2 188 19 36 24 37 70 18 22 -9 37 -24 44 -45 10 -28 42 -45 42 -22 0 24 -33 82 -54 96 -31 21 -86 27 -112 14z m-256 -179 c20 -39 12 -192 -11 -218 -25 -27 -41 -19 -57 28 -15 45 -9 164 9 198 15 29 41 25 59 -8z"/>
 <path d="M2663 1121 c-24 -15 -38 -63 -44 -156 -30 -400 -30 -399 -12 -412 21 -16 89 -17 99 -1 4 7 8 109 9 228 1 118 5 236 9 262 6 33 5 52 -3 62 -14 17 -45 26 -58 17z"/>
 <path d="M1632 728 c-30 -30 5 -83 45 -67 23 8 40 50 28 68 -9 15 -58 14 -73 -1z"/>
 </g>
<g id="layer2" fill="#efefef" stroke="none">
 <path d="M0 6045 c0 -1258 0 -1266 20 -1255 11 6 24 19 30 30 24 45 237 165 385 218 218 78 440 95 615 47 110 -30 117 -30 125 -3 12 36 62 101 98 125 47 32 103 22 186 -35 l66 -44 84 6 c146 9 199 67 149 164 -19 37 -32 50 -64 61 -34 12 -44 12 -69 0 -58 -28 -67 -103 -13 -111 35 -5 34 -28 -1 -28 -71 0 -93 74 -41 134 42 48 94 56 152 24 93 -51 115 -163 44 -224 -40 -34 -72 -44 -148 -44 -41 0 -51 -3 -55 -20 -7 -26 -24 -25 -47 1 -15 19 -25 21 -69 16 -51 -6 -52 -6 -29 11 20 16 22 20 9 30 -8 7 -37 15 -63 18 -38 4 -56 1 -82 -15 -33 -21 -74 -78 -69 -95 3 -10 132 -37 230 -50 43 -5 50 -3 54 14 9 33 41 35 73 5 26 -25 31 -26 101 -20 41 4 95 13 121 22 42 13 47 17 38 33 -14 26 -12 70 3 70 6 0 20 -18 29 -40 l17 -40 58 25 c84 38 141 73 170 106 35 39 63 40 37 2 -27 -42 -51 -59 -157 -114 -88 -45 -97 -52 -91 -72 14 -47 33 -87 42 -87 13 0 153 98 189 133 42 39 54 28 18 -15 -25 -30 -85 -75 -173 -130 -24 -15 -31 -25 -26 -37 53 -125 40 -154 -39 -86 -46 39 -57 43 -50 17 6 -24 -19 -44 -49 -40 -18 2 -24 10 -26 34 l-3 31 -47 -8 c-26 -4 -72 -10 -104 -14 l-56 -6 -7 -49 c-4 -31 -2 -56 5 -70 12 -22 16 -22 139 -18 112 5 135 9 211 38 122 48 190 91 258 165 62 68 72 75 72 50 0 -25 -109 -128 -180 -172 -140 -85 -273 -119 -435 -110 l-90 5 -125 -68 c-69 -37 -146 -79 -172 -94 -26 -14 -52 -26 -59 -26 -9 0 -10 29 -5 119 l6 119 -67 7 c-38 3 -97 10 -133 16 -124 18 -212 18 -313 -1 -53 -11 -101 -21 -106 -24 -4 -3 -10 -38 -13 -78 -5 -69 -27 -134 -52 -150 -22 -15 5 -7 59 16 88 40 172 58 288 63 145 7 167 -11 25 -21 -190 -13 -293 -47 -414 -137 -100 -73 -156 -173 -140 -250 15 -73 121 -109 189 -65 33 22 37 65 7 84 -11 7 -20 17 -20 22 0 17 28 11 56 -13 25 -22 26 -25 14 -61 -18 -57 -59 -78 -142 -74 -70 4 -81 10 -121 68 -21 31 -21 90 1 152 18 48 55 95 113 141 l34 27 -46 -6 c-61 -8 -112 10 -144 49 l-24 32 -36 -19 c-19 -11 -36 -23 -36 -28 -1 -4 -2 -12 -3 -17 -2 -18 -13 -21 -26 -6 -18 22 -7 41 50 77 38 25 52 42 60 70 11 38 42 68 70 68 23 0 185 68 185 77 -2 31 -20 74 -39 92 l-22 21 -65 -31 c-61 -31 -175 -110 -247 -171 -18 -15 -42 -28 -54 -28 -18 0 -15 6 22 38 92 78 183 143 248 173 81 38 74 33 66 52 -3 9 -30 28 -60 43 -62 30 -66 34 -54 54 8 13 14 12 42 -4 18 -11 52 -34 75 -53 23 -18 45 -33 49 -33 4 0 52 17 105 38 85 32 98 40 92 57 -5 18 -5 19 21 1 30 -19 56 -15 56 8 0 8 -18 27 -40 43 -38 27 -52 53 -29 53 6 0 24 -9 39 -20 31 -22 34 -20 44 24 l7 29 -71 -7 c-131 -13 -337 -87 -460 -165 -47 -30 -97 -60 -112 -68 -14 -7 -33 -25 -42 -38 -9 -14 -30 -32 -46 -40 l-30 -16 0 -2374 0 -2375 3490 0 3490 0 0 3655 0 3655 -3490 0 -3490 0 0 -1265z m4001 83 c96 -50 103 -56 125 -103 41 -92 41 -239 -3 -510 -21 -135 -14 -387 15 -495 25 -95 35 -162 26 -184 -11 -28 -51 -38 -82 -22 -37 19 -61 95 -76 240 -6 62 -15 105 -19 99 -15 -24 -36 -13 -56 26 -26 50 -77 101 -102 101 -20 0 -24 -27 -19 -139 4 -103 57 -165 140 -166 39 0 45 -3 41 -20 -6 -38 -21 -54 -56 -61 -93 -17 -165 29 -221 143 -93 189 -217 356 -296 400 -70 39 -77 19 -43 -122 42 -176 47 -283 14 -316 -17 -17 -30 -20 -69 -17 -47 5 -50 7 -148 96 -33 29 -35 28 -28 -13 12 -61 -40 -128 -82 -106 -9 5 -23 26 -31 48 -30 83 -106 225 -133 249 -16 13 -41 24 -55 24 -23 0 -24 -3 -18 -32 4 -18 23 -71 42 -117 39 -96 38 -123 -8 -147 -42 -21 -68 -13 -118 41 -42 45 -119 91 -203 120 -24 8 -47 15 -52 15 -4 0 -7 -26 -4 -58 3 -51 10 -65 49 -113 106 -133 125 -171 135 -280 6 -59 4 -69 -15 -88 -15 -15 -33 -21 -65 -21 -37 0 -48 5 -73 33 -16 18 -39 50 -52 71 -35 56 -71 207 -71 299 0 43 -4 87 -10 97 -10 18 -110 102 -178 147 -20 14 -83 38 -141 54 -126 35 -165 51 -251 102 -105 63 -166 133 -190 218 -12 41 20 121 55 137 l24 11 -45 78 c-24 43 -44 84 -44 92 0 20 8 10 63 -76 26 -40 50 -73 55 -73 4 0 26 9 48 19 59 29 183 46 227 32 19 -7 39 -11 43 -9 5 1 32 -2 59 -6 104 -16 273 -133 317 -219 24 -48 48 -191 48 -289 0 -84 11 -114 45 -122 15 -4 67 -27 117 -51 50 -25 93 -45 97 -45 4 0 7 37 7 83 -1 72 2 88 26 128 15 26 37 49 49 52 51 14 115 -51 180 -181 21 -42 39 -70 40 -62 1 8 2 74 3 145 1 124 2 130 22 133 29 4 51 -33 63 -106 13 -83 60 -170 114 -215 86 -70 110 -42 82 95 -24 113 -30 256 -13 287 7 13 27 29 44 36 27 11 37 10 71 -5 49 -22 165 -151 223 -249 23 -39 46 -74 51 -77 5 -3 9 14 9 38 0 41 25 107 52 138 25 29 69 51 89 45 34 -11 91 -77 119 -139 l27 -59 7 124 c4 68 13 155 21 194 47 238 57 323 45 377 -13 57 -58 158 -71 158 -4 0 -20 11 -36 24 -16 13 -45 27 -64 31 -41 8 -116 -10 -142 -33 -16 -14 -16 -17 3 -50 31 -52 60 -146 60 -195 0 -73 -53 -125 -108 -106 -35 12 -48 37 -63 123 -9 53 -8 75 5 127 9 34 21 68 27 75 14 17 -2 46 -36 68 -14 9 -25 21 -25 26 0 18 28 10 58 -15 l30 -25 19 22 c21 27 60 54 88 61 59 15 96 6 196 -45z m855 -540 c34 -12 64 -60 64 -101 0 -12 -21 -80 -46 -152 -58 -164 -60 -175 -43 -186 48 -30 414 17 664 87 321 89 465 118 465 96 0 -12 -15 -17 -185 -58 -60 -14 -150 -39 -200 -54 -119 -38 -161 -49 -258 -65 -45 -8 -118 -22 -162 -30 -44 -9 -124 -17 -178 -19 -54 -2 -101 -6 -104 -9 -3 -4 1 -17 9 -29 9 -13 19 -47 23 -76 4 -28 12 -52 18 -52 17 0 201 58 287 89 178 67 488 118 635 106 223 -19 536 -104 680 -186 188 -107 299 -188 282 -205 -4 -5 -16 -3 -25 4 -9 6 -48 31 -87 54 -38 23 -90 54 -114 69 -84 54 -188 99 -331 144 -191 59 -261 73 -406 81 -197 11 -386 -24 -695 -127 -113 -38 -216 -69 -228 -69 -21 0 -91 -35 -91 -46 0 -10 63 -33 133 -49 56 -12 100 -16 155 -11 85 6 238 30 292 45 19 5 65 17 103 26 53 13 67 21 67 35 0 21 -35 50 -60 50 -20 0 -57 26 -49 34 3 3 32 -3 64 -14 55 -19 59 -19 77 -3 11 10 36 17 66 17 37 1 57 -6 96 -32 46 -31 55 -33 190 -44 77 -6 173 -12 211 -12 69 -2 113 -19 133 -51 4 -6 32 -23 63 -38 74 -34 147 -90 242 -185 83 -81 137 -165 115 -178 -7 -5 -22 6 -37 27 -50 67 -237 244 -291 276 -86 50 -86 50 -109 4 -12 -22 -21 -49 -21 -60 0 -11 -4 -23 -10 -26 -24 -15 -5 -37 55 -64 131 -60 298 -197 371 -306 65 -96 33 -118 -35 -25 -81 111 -263 260 -366 298 -43 16 -45 15 -60 -3 -8 -11 -15 -23 -15 -26 0 -4 29 -31 65 -60 36 -30 80 -76 97 -103 29 -45 32 -56 36 -157 4 -84 1 -120 -13 -161 -43 -136 -186 -196 -320 -134 -45 20 -58 32 -79 74 -35 69 -43 141 -22 196 25 66 44 78 122 79 58 2 69 -1 72 -15 3 -15 -4 -18 -34 -18 -29 0 -43 -7 -70 -36 -37 -39 -41 -61 -20 -103 21 -39 100 -109 133 -117 15 -3 43 -10 62 -16 28 -9 38 -7 60 9 41 31 73 122 73 212 1 121 -13 155 -96 236 -70 69 -140 110 -241 146 -60 21 -294 16 -420 -10 -197 -39 -297 -49 -274 -27 11 11 326 68 432 78 142 14 261 1 350 -39 49 -22 60 -24 68 -12 26 41 14 47 -171 84 -119 24 -150 27 -255 22 -111 -6 -279 -33 -350 -58 -16 -5 -75 -14 -130 -19 -55 -5 -154 -17 -219 -27 -102 -14 -137 -15 -235 -5 -64 6 -127 14 -140 18 -20 6 -22 4 -17 -12 3 -10 -5 -48 -17 -84 -17 -49 -28 -65 -42 -65 -27 0 -44 58 -32 115 16 79 15 82 -33 108 -110 59 -147 90 -194 162 -27 40 -50 88 -52 108 -5 35 -4 36 11 17 8 -11 32 -45 51 -75 20 -30 51 -69 69 -87 33 -32 152 -103 173 -103 19 0 24 55 8 91 -8 19 -26 59 -39 89 -14 30 -28 64 -31 75 -4 11 -34 42 -67 68 -32 27 -64 59 -71 70 -13 24 -17 27 60 -32 24 -19 45 -31 48 -28 14 14 22 81 12 103 -14 30 -3 43 18 22 14 -14 18 -13 40 9 14 14 24 26 22 28 -2 1 -35 19 -74 39 -68 36 -184 128 -184 147 0 16 26 10 45 -11 26 -28 161 -113 214 -134 35 -13 50 -15 76 -6 19 6 50 10 71 8 l37 -3 49 135 c61 172 62 198 5 219 -20 8 -34 8 -49 0 l-20 -11 21 -19 c31 -30 28 -77 -6 -90 -44 -16 -73 2 -73 46 0 47 13 69 58 100 43 29 37 28 78 13z m-1949 -720 c29 -27 30 -64 2 -78 -52 -29 -107 26 -75 75 20 31 42 32 73 3z m-2239 -260 c17 -17 15 -55 -3 -62 -24 -9 -65 11 -65 32 0 22 19 42 40 42 9 0 21 -5 28 -12z m4733 -118 c10 -6 26 -26 33 -45 13 -31 13 -40 -4 -87 l-19 -53 0 38 c-1 25 -6 37 -15 37 -24 0 -76 50 -76 74 0 41 38 58 81 36z m117 -133 c7 -37 -10 -69 -66 -123 -64 -61 -82 -67 -82 -26 1 37 21 61 71 84 40 17 41 20 36 54 -5 32 -4 35 16 32 12 -2 23 -11 25 -21z m-2440 -74 c55 -36 104 -116 87 -143 -11 -18 -23 -11 -42 27 -23 47 -68 82 -85 65 -29 -29 -21 -113 31 -332 29 -118 55 -226 59 -240 6 -21 23 -30 97 -55 139 -47 185 -73 217 -126 33 -53 39 -112 15 -137 -16 -15 -19 -15 -45 0 -31 18 -53 54 -45 74 8 23 33 16 43 -12 12 -30 34 -22 24 9 -12 41 -54 85 -106 115 -56 30 -174 69 -184 60 -3 -4 -1 -23 5 -45 6 -21 11 -61 11 -89 0 -58 -16 -80 -54 -70 -18 4 -25 15 -31 43 -3 21 -13 68 -22 105 -15 64 -18 68 -48 74 -17 3 -56 1 -86 -5 -30 -6 -76 -15 -103 -21 -26 -5 -59 -8 -72 -5 -13 3 -35 7 -48 10 -27 5 -40 39 -22 54 7 6 26 10 42 9 16 0 91 3 166 7 l138 8 -6 26 c-27 124 -63 190 -147 273 -26 27 -65 57 -86 68 -37 18 -42 19 -86 4 -44 -15 -71 -44 -49 -51 29 -10 149 -106 165 -132 60 -99 -36 -170 -146 -108 -55 30 -83 90 -91 192 l-7 80 -56 56 c-91 91 -178 99 -211 20 -17 -41 -17 -196 -1 -304 12 -80 16 -89 39 -98 109 -41 246 -177 258 -254 18 -121 -43 -215 -140 -215 -32 0 -45 7 -75 38 -57 61 -125 209 -173 382 l-13 45 -58 3 c-37 2 -85 -5 -135 -19 -42 -12 -94 -25 -114 -29 -88 -17 -213 36 -262 110 -24 37 -46 93 -46 117 0 27 23 7 37 -32 27 -79 110 -140 205 -151 43 -5 72 -1 140 20 59 18 109 26 158 26 l73 0 -7 48 c-18 142 -18 216 2 273 43 123 99 176 174 166 42 -6 144 -73 196 -131 19 -21 37 -36 40 -34 65 35 108 49 134 44 36 -7 98 -49 162 -110 26 -26 51 -45 54 -42 3 3 -1 39 -8 80 -16 93 -9 216 14 250 13 21 25 26 57 26 22 0 52 -8 67 -17z m1391 -24 c31 -42 58 -136 48 -163 -10 -27 -27 -18 -27 14 0 16 -9 54 -21 85 -17 46 -24 55 -45 55 -52 0 -59 -21 -58 -174 0 -88 6 -162 14 -196 20 -76 20 -294 0 -335 -13 -25 -22 -30 -58 -33 -34 -3 -46 1 -64 22 -36 39 -117 206 -138 285 -6 23 -13 41 -15 39 -2 -2 -7 -33 -10 -68 -12 -150 -18 -187 -35 -227 -20 -46 -21 -46 -69 -37 -43 9 -66 64 -96 238 -28 159 -33 176 -46 176 -11 0 -10 11 -18 -204 l-6 -179 -58 -20 c-94 -31 -97 -22 -63 203 26 179 44 260 71 317 15 32 30 53 37 51 20 -7 66 -112 78 -175 47 -269 60 -323 80 -323 5 0 12 10 14 23 3 12 17 78 31 147 14 69 32 143 39 165 13 39 43 59 50 33 2 -7 11 -47 21 -88 31 -134 109 -300 141 -300 32 0 39 65 24 229 -6 69 -11 173 -12 231 0 90 4 113 25 161 18 41 33 59 58 72 54 26 75 22 108 -24z m243 -265 c49 -25 89 -61 126 -112 62 -87 30 -100 -42 -17 -83 97 -173 132 -219 86 -18 -18 -22 -33 -22 -89 0 -58 6 -78 42 -153 55 -113 124 -172 160 -137 11 11 11 21 3 42 -18 47 -113 126 -152 126 -24 0 -23 17 1 25 41 13 145 -56 177 -116 18 -36 18 -94 -1 -112 -67 -67 -258 9 -281 111 -3 15 -11 43 -16 62 -6 19 -11 66 -12 105 -1 81 23 136 76 180 28 22 40 25 80 21 26 -3 62 -13 80 -22z m-1727 -1118 c64 -27 80 -50 80 -114 -1 -59 -24 -126 -54 -150 -31 -26 -120 -61 -170 -68 l-50 -6 39 -52 c50 -66 120 -220 120 -262 0 -23 -20 -15 -30 11 -36 94 -108 220 -146 255 -24 22 -48 40 -53 40 -19 0 -53 -148 -65 -277 l-6 -62 65 -76 c110 -129 176 -249 268 -485 37 -95 41 -114 42 -195 0 -78 -3 -95 -24 -129 -47 -75 -163 -100 -237 -50 -42 29 -52 39 -91 99 -81 123 -106 270 -108 633 l-1 263 -75 70 c-40 38 -94 82 -119 97 -33 20 -40 28 -27 30 23 5 74 -30 154 -102 33 -31 66 -56 71 -56 10 0 15 25 27 125 7 54 48 170 101 280 74 157 183 225 289 181z m793 -32 c58 -29 115 -88 154 -160 26 -48 68 -252 68 -330 0 -70 9 -78 134 -118 88 -28 131 -49 176 -83 33 -24 62 -49 65 -54 12 -19 -18 -8 -68 26 -51 35 -254 110 -280 103 -11 -2 -11 -20 0 -103 12 -90 20 -113 79 -231 62 -123 66 -136 71 -216 5 -81 4 -86 -18 -102 -33 -23 -42 -21 -88 22 -29 26 -50 59 -71 110 -27 68 -38 118 -70 331 -16 110 -81 183 -120 136 -18 -21 -17 -84 3 -202 14 -84 15 -108 4 -140 -9 -30 -18 -39 -39 -41 -64 -7 -112 106 -112 268 -1 115 13 162 58 190 45 27 93 26 138 -5 46 -31 48 -31 48 3 0 24 -8 32 -73 64 -79 39 -209 137 -243 185 -12 16 -34 53 -49 83 -37 74 -33 145 13 213 57 82 126 98 220 51z m-1743 -218 c28 -13 71 -44 97 -68 25 -23 61 -52 80 -63 18 -11 41 -36 50 -56 42 -84 51 -253 18 -321 -25 -53 -25 -60 3 -86 30 -28 66 -101 74 -147 6 -38 -10 -110 -38 -165 -81 -164 -362 -256 -649 -211 -109 17 -354 94 -430 135 -14 7 -59 21 -100 31 -41 9 -97 23 -125 30 -144 39 -297 46 -395 20 -30 -8 -67 -15 -82 -15 -35 0 -200 -80 -244 -119 -33 -30 -63 -39 -77 -24 -4 3 -1 13 6 22 8 9 19 36 26 61 33 116 102 204 234 299 71 52 132 80 172 81 22 0 43 12 77 43 52 49 115 71 238 83 61 6 78 11 92 30 18 23 103 47 151 44 51 -5 53 -3 53 54 -1 65 20 100 83 135 44 24 137 50 183 51 20 0 32 10 53 45 49 85 163 132 320 134 65 1 89 -4 130 -23z m3231 -106 c115 -25 232 -129 242 -215 4 -40 13 -54 64 -105 68 -69 97 -126 98 -192 0 -27 4 -48 9 -48 13 0 143 -100 179 -139 37 -40 71 -105 72 -136 0 -12 29 -47 74 -88 92 -83 202 -227 253 -332 76 -158 117 -273 107 -300 -10 -24 -33 -25 -47 -2 -62 101 -86 134 -141 184 -65 62 -178 126 -281 161 -213 72 -455 102 -597 74 -59 -11 -133 -16 -258 -15 -164 1 -179 2 -243 27 -205 79 -300 171 -342 332 -14 54 -14 65 1 128 14 55 25 77 60 113 l43 45 -22 41 c-14 28 -21 58 -21 101 1 71 18 110 69 155 59 51 99 64 203 65 l92 1 0 37 c0 43 18 63 80 92 81 36 187 42 306 16z m-1779 -107 c79 -45 138 -125 131 -180 -5 -42 -29 -34 -46 15 -16 48 -39 65 -85 60 -26 -2 -38 -13 -64 -51 -42 -62 -56 -135 -57 -287 l-1 -125 40 -19 c126 -58 209 -148 259 -281 30 -82 33 -138 8 -215 -23 -73 -27 -79 -76 -101 -85 -38 -197 -15 -247 52 -37 50 -78 123 -95 172 -25 70 -64 267 -64 324 l0 53 -75 0 c-67 0 -75 2 -75 19 0 23 45 41 104 41 l42 0 12 118 c20 197 56 305 124 368 62 58 108 68 165 37z m-1575 -1113 c14 -10 30 -32 36 -47 13 -33 32 -167 32 -227 0 -23 3 -45 6 -49 3 -3 7 -57 9 -119 3 -164 36 -269 85 -276 22 -4 22 -2 15 43 -9 61 14 58 34 -5 12 -38 12 -47 0 -69 -12 -22 -23 -26 -65 -29 -48 -3 -53 -1 -88 38 -64 71 -95 176 -96 323 0 50 -2 57 -20 57 -26 0 -26 16 1 23 20 5 21 10 18 141 -3 114 -7 138 -22 153 -15 16 -19 16 -27 3 -6 -8 -7 -27 -4 -42 6 -30 -4 -36 -24 -16 -29 29 -3 103 41 111 40 8 44 7 69 -13z m2371 -132 c33 -33 22 -55 -12 -24 -24 22 -35 20 -51 -10 -15 -26 -12 -49 34 -274 17 -80 13 -142 -9 -160 -20 -17 -72 13 -97 56 -23 39 -40 36 -31 -6 3 -16 2 -41 -1 -55 -10 -39 -54 -31 -80 14 -17 30 -18 41 -9 115 8 62 7 88 -3 113 -18 46 -64 103 -82 103 -13 0 -14 -19 -9 -150 6 -156 -2 -214 -30 -224 -23 -9 -50 19 -84 87 -16 31 -31 57 -33 57 -2 0 -17 -7 -32 -15 -91 -47 -154 9 -154 137 0 45 -5 67 -22 92 -79 116 -187 130 -236 32 -32 -64 -25 -160 19 -263 16 -37 22 -43 48 -43 49 0 81 69 56 124 -13 29 23 16 42 -15 47 -78 -77 -180 -164 -135 -28 14 -86 92 -111 149 -29 67 -4 186 49 233 34 30 97 64 118 64 9 0 40 -12 69 -26 46 -23 66 -41 125 -114 l19 -22 28 27 c59 56 97 18 161 -159 20 -55 41 -102 46 -103 6 -2 13 37 16 94 4 54 15 123 24 153 16 47 21 55 43 55 19 0 33 -12 57 -47 17 -26 33 -52 35 -57 7 -20 31 -15 37 8 12 45 31 36 31 -13 0 -54 18 -101 56 -151 26 -34 63 -47 65 -22 3 32 -4 88 -17 145 -8 35 -15 97 -15 139 0 64 3 78 22 99 30 32 44 30 82 -8z m339 15 c18 -16 25 -63 10 -63 -4 0 -15 9 -25 20 -9 11 -24 20 -33 20 -15 0 -16 -11 -11 -92 4 -51 16 -124 26 -161 16 -55 18 -78 11 -118 -11 -56 -34 -96 -60 -104 -23 -7 -62 17 -85 51 -20 31 -35 31 -35 0 0 -13 -8 -34 -18 -46 -15 -18 -21 -20 -45 -11 -15 6 -30 18 -34 27 -5 14 28 220 46 283 7 25 36 50 45 40 3 -3 8 -45 11 -94 6 -85 7 -89 44 -128 27 -28 44 -38 56 -33 15 6 17 17 12 104 -3 53 -11 122 -17 152 -15 77 1 133 44 154 39 19 36 19 58 -1z m-2868 -18 c21 -9 42 -28 52 -46 15 -30 15 -32 -2 -24 -85 36 -97 15 -92 -158 3 -147 8 -138 -84 -151 l-47 -7 -10 38 c-20 71 -9 169 31 271 34 86 77 108 152 77z m3452 -50 c21 -14 54 -72 54 -96 0 -23 -32 -6 -42 22 -7 21 -22 36 -44 45 -46 19 -51 18 -70 -18 -16 -31 -16 -55 2 -188 8 -57 15 -65 63 -61 47 3 79 -12 90 -42 18 -49 -12 -62 -49 -22 -24 25 -64 33 -75 15 -3 -5 1 -48 10 -95 22 -116 18 -146 -20 -157 -17 -4 -34 -3 -39 2 -10 10 -35 111 -39 154 -1 13 -16 24 -44 34 -24 7 -43 17 -43 20 0 4 -4 13 -9 21 -8 12 -20 4 -58 -37 -61 -65 -108 -69 -170 -15 -46 41 -66 202 -32 265 19 35 81 68 129 68 88 0 122 -49 121 -177 0 -47 3 -83 6 -79 3 3 23 -4 44 -14 21 -11 40 -20 42 -20 2 0 2 63 -1 141 -4 131 -3 144 18 189 12 26 32 53 44 59 26 13 81 7 112 -14z m-2485 -11 c8 -10 9 -29 3 -62 -4 -26 -8 -144 -9 -262 -1 -119 -5 -221 -9 -228 -10 -16 -78 -15 -99 1 -18 13 -18 12 12 412 6 93 20 141 44 156 13 9 44 0 58 -17z m-1016 -375 c12 -18 -5 -60 -28 -68 -40 -16 -75 37 -45 67 15 15 64 16 73 1z"/>
 <path d="M3696 5983 c-20 -62 -25 -127 -14 -173 10 -45 14 -50 39 -50 35 0 49 24 49 82 -1 47 -38 149 -57 155 -6 2 -14 -4 -17 -14z"/>
 <path d="M1874 5760 c-27 -4 -62 -14 -77 -22 l-27 -14 27 -36 c103 -133 210 -247 300 -319 47 -38 83 -56 150 -78 150 -48 144 -48 139 -4 -3 21 -8 61 -11 89 -10 97 -58 207 -119 272 -42 45 -82 68 -167 97 -73 25 -122 29 -215 15z"/>
 <path d="M1703 5678 c-34 -38 -35 -58 -8 -113 28 -59 73 -98 170 -150 67 -35 172 -75 197 -75 7 0 -19 30 -58 68 -39 37 -112 118 -163 180 -51 61 -98 112 -105 112 -7 0 -22 -10 -33 -22z"/>
 <path d="M2290 5227 c0 -4 87 -67 92 -67 2 0 4 9 5 21 1 15 -8 25 -32 35 -32 13 -65 19 -65 11z"/>
 <path d="M2490 4936 c0 -13 7 -60 15 -104 24 -127 56 -186 97 -180 21 3 23 7 21 60 -2 66 -24 122 -77 196 -42 57 -56 64 -56 28z"/>
 <path d="M4622 5115 c-37 -31 -39 -50 -12 -84 18 -21 23 -22 50 -11 16 7 39 10 50 7 16 -4 24 2 35 30 21 50 19 60 -14 66 -16 3 -40 9 -53 12 -18 5 -33 -1 -56 -20z"/>
 <path d="M4784 5075 c-9 -22 -25 -66 -35 -97 l-17 -58 58 0 c55 0 90 15 90 39 0 22 -33 100 -54 126 l-25 30 -17 -40z"/>
 <path d="M4570 4993 c0 -31 21 -53 49 -53 17 0 13 13 -19 50 l-29 35 -1 -32z"/>
 <path d="M4684 4986 c-15 -11 -16 -17 -7 -27 16 -16 43 -4 43 21 0 24 -9 25 -36 6z"/>
 <path d="M4593 4899 c10 -46 42 -121 52 -123 5 0 17 20 26 47 l17 47 -25 20 c-14 11 -29 20 -34 20 -4 0 -15 3 -25 7 -14 5 -16 2 -11 -18z"/>
 <path d="M5840 4871 l-25 -8 28 -11 c15 -7 38 -16 52 -22 14 -5 25 -14 25 -20 0 -14 -7 -13 -69 10 -48 17 -56 18 -82 5 -37 -19 -83 -19 -125 1 -33 16 -40 15 -182 -19 -205 -49 -256 -57 -354 -57 -100 0 -214 26 -301 70 -92 46 -90 47 -132 -75 -13 -37 -15 -59 -8 -85 8 -32 13 -36 64 -47 64 -13 271 -15 349 -3 30 5 105 14 165 20 61 6 144 19 185 30 268 67 476 69 705 9 38 -11 73 -19 76 -19 4 0 12 15 18 33 10 27 9 33 -5 42 -46 27 -66 52 -68 84 -2 40 -13 46 -111 55 -143 13 -181 15 -205 7z"/>
 <path d="M6200 4806 c0 -25 30 -43 50 -31 18 11 11 43 -12 49 -35 9 -38 8 -38 -18z"/>
 <path d="M4625 4579 c-4 -6 -9 -37 -12 -70 -5 -48 -3 -59 9 -59 14 0 28 60 28 123 0 19 -15 23 -25 6z"/>
 <path d="M2645 3908 c13 -57 69 -121 118 -133 23 -6 27 -4 27 15 0 36 -36 84 -89 118 -27 18 -52 32 -56 32 -3 0 -3 -15 0 -32z"/>
 <path d="M2325 3608 c11 -65 41 -178 59 -221 21 -48 83 -117 106 -117 24 0 49 31 64 82 20 64 1 117 -66 185 -46 47 -141 113 -163 113 -4 0 -4 -19 0 -42z"/>
 <path d="M2875 2801 c-46 -21 -91 -79 -125 -164 -28 -68 -23 -75 48 -70 105 8 185 56 213 130 32 85 -46 146 -136 104z"/>
 <path d="M2656 2018 c8 -164 30 -310 60 -381 75 -182 153 -297 202 -297 53 0 78 75 62 190 -13 92 -39 160 -143 368 -39 77 -157 232 -177 232 -5 0 -6 -51 -4 -112z"/>
 <path d="M3648 2761 c-72 -57 -55 -198 37 -299 32 -36 171 -126 206 -134 26 -6 2 200 -38 314 -22 64 -33 82 -64 104 -52 36 -106 42 -141 15z"/>
 <path d="M4080 1845 c0 -21 26 -167 36 -197 8 -26 33 -22 40 7 8 31 -31 157 -57 188 -18 21 -18 21 -19 2z"/>
 <path d="M1760 2589 c-52 -15 -74 -28 -110 -66 l-45 -47 59 -17 c80 -24 108 -52 104 -104 -3 -37 -6 -41 -41 -49 -52 -13 -114 19 -142 72 -27 50 -33 53 -90 46 -142 -18 -218 -91 -182 -175 11 -27 23 -37 59 -47 76 -22 96 -94 28 -100 -28 -2 -42 3 -68 29 -17 17 -32 35 -32 39 0 15 -99 22 -154 10 -64 -13 -65 -25 -4 -34 68 -10 146 -51 154 -79 8 -33 -11 -65 -42 -73 -65 -16 -169 28 -202 87 -10 16 -23 31 -29 33 -44 17 -263 -36 -263 -64 0 -4 27 -13 59 -20 67 -14 105 -45 99 -81 -7 -53 -118 -44 -185 14 -29 26 -39 29 -74 23 -117 -19 -289 -157 -353 -284 -10 -18 -16 -37 -14 -42 2 -5 48 14 103 42 55 28 120 55 145 59 25 4 72 12 105 19 138 28 446 -15 605 -85 135 -58 301 -111 406 -130 225 -40 442 -1 562 100 49 41 94 131 96 190 1 47 -3 57 -43 109 -39 50 -48 57 -70 52 -103 -24 -180 -15 -215 23 -22 24 -12 67 19 87 36 23 125 21 174 -4 23 -12 44 -22 47 -22 3 0 12 16 20 35 28 68 13 241 -27 296 -26 37 -35 37 -43 -2 -8 -42 -57 -89 -93 -89 -21 0 -33 8 -47 30 -22 38 -11 79 35 126 l30 31 -36 30 c-20 17 -53 35 -74 42 -56 16 -157 12 -231 -10z"/>
 <path d="M2085 2450 c-19 -36 -19 -54 -1 -69 17 -14 43 8 52 45 14 55 -25 74 -51 24z"/>
 <path d="M1620 2419 c0 -33 55 -79 95 -79 24 0 18 38 -9 55 -33 22 -86 36 -86 24z"/>
 <path d="M1092 2098 c10 -28 83 -67 126 -68 65 0 53 29 -23 57 -69 25 -109 29 -103 11z"/>
 <path d="M2065 2093 c-47 -9 -51 -14 -25 -28 28 -16 130 -20 130 -6 0 16 -74 39 -105 34z"/>
 <path d="M790 1971 c19 -11 48 -20 65 -21 27 0 28 1 13 16 -9 9 -38 18 -64 21 l-49 4 35 -20z"/>
 <path d="M5075 2490 c-78 -9 -143 -42 -151 -77 -10 -37 5 -54 57 -69 59 -17 141 -88 137 -118 -3 -19 -9 -21 -61 -21 -58 1 -58 1 -119 63 l-60 62 -87 0 c-98 0 -148 -18 -195 -68 -41 -44 -47 -115 -16 -181 l22 -48 64 -6 c103 -8 189 -69 164 -117 -24 -44 -110 -33 -198 27 l-53 36 -24 -25 c-58 -63 -76 -140 -50 -219 47 -140 130 -221 286 -280 73 -27 100 -32 212 -37 91 -3 167 0 264 13 199 26 325 17 518 -35 173 -47 323 -116 404 -187 28 -25 54 -43 57 -40 11 11 -78 174 -131 242 -64 81 -164 185 -178 185 -5 0 -20 -9 -34 -20 -32 -25 -127 -28 -161 -4 -52 36 -68 118 -30 154 29 27 47 25 141 -15 13 -5 17 -2 17 14 0 25 -96 125 -164 169 l-49 32 -32 -37 c-27 -32 -38 -37 -88 -41 -102 -8 -147 18 -147 89 0 37 3 41 38 56 27 11 57 14 115 10 l77 -5 0 26 c0 55 -84 182 -120 182 -11 0 -23 -6 -27 -14 -36 -60 -183 -37 -183 30 0 63 52 94 125 74 25 -7 48 -10 51 -7 10 10 -34 91 -63 120 -16 14 -49 37 -75 51 -41 22 -67 28 -168 40 -14 2 -52 0 -85 -4z"/>
 <path d="M4976 2279 c31 -34 94 -62 94 -41 0 11 -81 62 -99 62 -11 0 -10 -5 5 -21z"/>
 <path d="M5350 2245 c-30 -36 32 -69 76 -40 31 20 30 31 -3 39 -16 4 -35 9 -44 12 -9 2 -22 -2 -29 -11z"/>
 <path d="M4660 1981 c0 -12 57 -47 93 -55 21 -5 28 -3 25 6 -7 22 -118 69 -118 49z"/>
 <path d="M5446 1947 c-15 -11 -16 -17 -7 -35 14 -27 42 -35 90 -27 48 8 76 27 68 47 -10 28 -119 38 -151 15z"/>
 <path d="M5730 1667 c0 -13 12 -34 26 -48 31 -29 95 -33 121 -7 15 16 13 19 -48 48 -78 37 -99 38 -99 7z"/>
 <path d="M3385 1703 c31 -260 150 -460 201 -338 7 19 14 52 14 74 0 51 -39 160 -75 206 -28 38 -120 115 -137 115 -6 0 -7 -22 -3 -57z"/>
 <path d="M3681 982 c-23 -54 24 -117 65 -88 18 14 18 15 -2 62 -23 58 -46 67 -63 26z"/>
 <path d="M4075 793 c3 -40 4 -43 15 -43 6 0 8 11 4 28 -9 38 -21 48 -19 15z"/>
 <path d="M4779 958 c-18 -34 -24 -153 -9 -198 16 -47 32 -55 57 -28 23 26 31 179 11 218 -18 33 -44 37 -59 8z"/>
 <path d="M783 5083 c-8 -3 -13 -23 -13 -52 0 -44 2 -48 35 -64 l35 -17 0 40 c0 69 24 47 32 -30 3 -21 9 -25 38 -28 19 -1 78 -10 130 -19 52 -10 108 -16 124 -14 16 1 32 -2 36 -9 6 -10 147 -50 178 -50 22 0 13 26 -18 48 -37 28 -39 58 -5 74 40 18 65 -12 65 -77 0 -51 1 -53 31 -59 17 -3 44 -6 60 -6 29 0 29 0 29 64 0 39 -5 67 -12 73 -19 15 -331 64 -342 53 -5 -5 -8 -20 -8 -35 0 -19 -5 -25 -17 -23 -12 3 -15 13 -14 41 l2 36 -65 21 c-92 28 -266 48 -301 33z"/>
 <path d="M1804 5000 c-11 -4 -63 -13 -115 -19 -111 -14 -119 -21 -119 -103 0 -68 -8 -66 143 -43 93 14 160 36 173 57 8 12 -12 35 -37 41 -16 4 -23 -1 -30 -23 -13 -36 -42 -43 -68 -18 -17 15 -19 23 -11 38 15 27 24 31 79 32 45 1 49 3 41 22 -8 24 -26 29 -56 16z"/>
 <path d="M766 4901 c-4 -5 6 -21 21 -35 30 -28 42 -32 44 -16 6 50 3 55 -28 58 -17 2 -34 -1 -37 -7z"/>
 <path d="M582 4866 c-97 -39 -100 -42 -84 -64 6 -9 20 -36 31 -59 22 -48 20 -47 55 -33 16 6 26 17 26 30 0 12 10 25 26 32 23 11 29 10 45 -10 16 -20 26 -23 81 -20 62 3 63 3 66 33 3 39 -40 75 -69 57 -26 -17 -29 -15 -29 16 0 61 -32 65 -148 18z"/>
 <path d="M923 4886 c8 -21 -18 -33 -37 -17 -17 14 -26 4 -26 -29 0 -19 7 -30 25 -38 14 -6 25 -18 25 -27 0 -17 -21 -20 -37 -4 -12 12 -25 -2 -15 -17 8 -10 233 -45 295 -44 28 0 37 4 38 18 5 64 4 66 -20 72 -14 3 -31 19 -40 37 -17 34 -42 43 -160 59 -48 6 -54 5 -48 -10z"/>
 <path d="M1880 4850 c-17 -10 -14 -15 18 -24 24 -8 25 -6 16 18 -7 18 -13 19 -34 6z"/>
 <path d="M1229 4786 c-1 -31 -2 -62 -3 -68 -1 -13 128 -41 152 -33 8 3 12 25 12 63 l0 59 -57 12 c-32 6 -68 14 -80 17 -22 6 -23 3 -24 -50z m59 -43 c-2 -10 -10 -18 -18 -18 -8 0 -16 8 -18 18 -2 12 3 17 18 17 15 0 20 -5 18 -17z"/>
 <path d="M1420 4738 c0 -65 0 -66 31 -72 54 -11 89 26 89 97 0 23 -4 27 -29 27 -16 0 -43 3 -60 6 l-31 7 0 -65z"/>
 <path d="M1215 4658 c-2 -7 -6 -41 -8 -75 -4 -58 3 -78 18 -53 3 5 49 31 101 56 51 25 94 50 94 55 0 15 -23 10 -68 -16 -49 -28 -67 -24 -58 10 5 19 1 24 -25 29 -44 8 -49 8 -54 -6z"/>
 <path d="M440 4629 c-54 -25 -50 -20 -55 -60 -6 -41 -28 -59 -72 -59 -26 0 -33 -4 -33 -19 0 -32 47 -61 98 -61 38 0 50 5 82 38 39 38 60 91 60 150 0 39 -15 41 -80 11z"/>
 </g>

</svg>